<svg xmlns="http://www.w3.org/2000/svg" viewBox="0 0 180 180"><defs><style>.cls-1{fill:none;}</style></defs><g id="レイヤー_2" data-name="レイヤー 2"><g id="レイヤー_2-2" data-name="レイヤー 2"><rect class="cls-1" width="180" height="180"/><path d="M39.11,130a4.66,4.66,0,0,1,1.63.22,6,6,0,0,1,1,.48l.35.18a.54.54,0,0,0,.26.07c.2,0,.33-.27.4-.79h.41c0,.22,0,.5,0,.81s0,.74,0,1.25,0,1.19,0,2h-.41a6.11,6.11,0,0,0-.43-1.82,3.86,3.86,0,0,0-1-1.44,2.43,2.43,0,0,0-1.61-.56,2.1,2.1,0,0,0-1.42.48,1.69,1.69,0,0,0-.55,1.35,2.07,2.07,0,0,0,.36,1.22,4.22,4.22,0,0,0,1.05,1l1.67,1.17a15.79,15.79,0,0,1,1.54,1.11,4.78,4.78,0,0,1,1.1,1.25,3.28,3.28,0,0,1,.41,1.67,3,3,0,0,1-.62,2,3.71,3.71,0,0,1-1.62,1.16,6.07,6.07,0,0,1-2.21.39,5.66,5.66,0,0,1-1.77-.22,6.7,6.7,0,0,1-1.11-.45,1.42,1.42,0,0,0-.61-.25c-.19,0-.33.27-.4.79H35c0-.29,0-.62,0-1s0-.88,0-1.5,0-1.4,0-2.34h.41a9,9,0,0,0,.41,2.21,3.72,3.72,0,0,0,1,1.66,2.62,2.62,0,0,0,1.84.63,2.53,2.53,0,0,0,1.58-.5,1.8,1.8,0,0,0,.64-1.51,2.47,2.47,0,0,0-.75-1.84,13,13,0,0,0-1.94-1.49c-.56-.37-1.09-.74-1.58-1.12a4.52,4.52,0,0,1-1.17-1.27,3.21,3.21,0,0,1-.44-1.7,3,3,0,0,1,.56-1.86,3.39,3.39,0,0,1,1.49-1.07A5.38,5.38,0,0,1,39.11,130Z"/><path d="M48.47,128.85V135a2.66,2.66,0,0,1,1.21-1.3,4,4,0,0,1,1.71-.37,3.51,3.51,0,0,1,1.24.19,1.91,1.91,0,0,1,.73.51,2,2,0,0,1,.44.88,6.15,6.15,0,0,1,.14,1.45v4.83a1.46,1.46,0,0,0,.26,1,1.2,1.2,0,0,0,.89.27v.38l-1,0-1.33,0c-.47,0-.92,0-1.36,0l-1,0v-.38a.9.9,0,0,0,.75-.27,1.74,1.74,0,0,0,.22-1v-5.58a3,3,0,0,0-.09-.78.94.94,0,0,0-.34-.52,1.13,1.13,0,0,0-.69-.19,1.6,1.6,0,0,0-1.25.58,2.11,2.11,0,0,0-.52,1.48v5a1.76,1.76,0,0,0,.21,1,.94.94,0,0,0,.76.27v.38l-.95,0c-.42,0-.85,0-1.28,0l-1.41,0-1.06,0v-.38a1.21,1.21,0,0,0,.89-.27,1.51,1.51,0,0,0,.26-1V131a2.32,2.32,0,0,0-.25-1.19,1,1,0,0,0-.9-.38v-.38a10.54,10.54,0,0,0,1.11,0c.49,0,1,0,1.4-.06A8.44,8.44,0,0,0,48.47,128.85Z"/><path d="M64.66,133.41v7.51a2.17,2.17,0,0,0,.25,1.19,1,1,0,0,0,.9.39v.38a10.32,10.32,0,0,0-1.11-.06c-.5,0-1,0-1.4.06a7.59,7.59,0,0,0-1.22.19v-1.61a2.71,2.71,0,0,1-1.19,1.28,3.7,3.7,0,0,1-1.7.39,3.2,3.2,0,0,1-1.22-.2,2,2,0,0,1-.73-.5,1.9,1.9,0,0,1-.43-.9,6.28,6.28,0,0,1-.13-1.43v-4.54a2.28,2.28,0,0,0-.24-1.19,1,1,0,0,0-.91-.39v-.38a10.94,10.94,0,0,0,1.12.06c.5,0,1,0,1.4-.06s.84-.11,1.21-.19v7.42a3.7,3.7,0,0,0,.08.79,1,1,0,0,0,.32.53,1,1,0,0,0,.68.19,1.56,1.56,0,0,0,1.23-.6,2.22,2.22,0,0,0,.51-1.48v-4.7a2.28,2.28,0,0,0-.24-1.19,1,1,0,0,0-.91-.39v-.38a10.6,10.6,0,0,0,1.11.06c.51,0,1,0,1.41-.06S64.29,133.49,64.66,133.41Z"/><path d="M72.77,133.35a1.57,1.57,0,0,1,.93.25,1.48,1.48,0,0,1,.53.61,2,2,0,0,1,.17.79,1.53,1.53,0,0,1-.39,1.09,1.29,1.29,0,0,1-1,.42,1.42,1.42,0,0,1-1-.31,1.09,1.09,0,0,1-.35-.84,1.45,1.45,0,0,1,.23-.83,2.17,2.17,0,0,1,.56-.57.85.85,0,0,0-.5,0,1.5,1.5,0,0,0-.83.44,2.91,2.91,0,0,0-.59.87,2.52,2.52,0,0,0-.21,1V141a1.35,1.35,0,0,0,.42,1.16,2.09,2.09,0,0,0,1.26.31v.38l-1.2,0q-.78,0-1.65,0l-1.45,0-1.11,0v-.38a1.21,1.21,0,0,0,.89-.27,1.51,1.51,0,0,0,.26-1v-5.65a2.17,2.17,0,0,0-.25-1.19,1,1,0,0,0-.9-.39v-.38a10.6,10.6,0,0,0,1.11.06q.75,0,1.41-.06c.43,0,.84-.11,1.21-.19v1.66a3.12,3.12,0,0,1,.57-.87,2.62,2.62,0,0,1,.83-.62A2.34,2.34,0,0,1,72.77,133.35Z"/><path d="M78.7,133.41v7.8a1.51,1.51,0,0,0,.26,1,1.21,1.21,0,0,0,.89.27v.38l-1,0c-.45,0-.91,0-1.37,0l-1.42,0-1.08,0v-.38a1.2,1.2,0,0,0,.89-.27,1.51,1.51,0,0,0,.26-1v-5.65a2.28,2.28,0,0,0-.24-1.19A1,1,0,0,0,75,134v-.38a10.9,10.9,0,0,0,1.11.06q.77,0,1.41-.06C77.93,133.55,78.33,133.49,78.7,133.41ZM77.3,129a1.79,1.79,0,0,1,1.2.37,1.38,1.38,0,0,1,0,2,1.79,1.79,0,0,1-1.2.37,1.77,1.77,0,0,1-1.19-.37,1.38,1.38,0,0,1,0-2A1.77,1.77,0,0,1,77.3,129Z"/><path d="M82.07,129.78a1.1,1.1,0,0,1,.81.32,1.14,1.14,0,0,1,.32.87,3.22,3.22,0,0,1-.15,1c-.1.31-.23.66-.38,1s-.3.88-.47,1.47H82a12.46,12.46,0,0,0-.48-1.43,9.14,9.14,0,0,1-.38-1.05,3.38,3.38,0,0,1-.15-1,1.17,1.17,0,0,1,.33-.88A1.06,1.06,0,0,1,82.07,129.78Z"/><path d="M87.72,133.35a4.37,4.37,0,0,1,1.32.19,3.41,3.41,0,0,1,.82.37c.4.27.65.1.75-.54H91q0,.51-.06,1.23c0,.48,0,1.13,0,1.93h-.37a6.17,6.17,0,0,0-.34-1.31,2.68,2.68,0,0,0-.73-1.06,1.83,1.83,0,0,0-1.23-.41,1.39,1.39,0,0,0-.88.29,1.05,1.05,0,0,0-.35.86,1.45,1.45,0,0,0,.32.94,4.15,4.15,0,0,0,.83.77c.34.24.7.5,1.07.78a10.74,10.74,0,0,1,1.51,1.33,2.47,2.47,0,0,1,.62,1.75,2.23,2.23,0,0,1-.46,1.41,2.94,2.94,0,0,1-1.23.92,4.23,4.23,0,0,1-1.7.33,4.08,4.08,0,0,1-1-.11,3,3,0,0,1-.72-.27l-.44-.21-.39-.17a.28.28,0,0,0-.31.13,1.37,1.37,0,0,0-.21.5h-.37c0-.38,0-.85.05-1.4s0-1.28,0-2.19H85a7.37,7.37,0,0,0,.4,1.72,2.83,2.83,0,0,0,.78,1.16,1.85,1.85,0,0,0,1.25.42,1.39,1.39,0,0,0,.86-.29,1.15,1.15,0,0,0,.39-1,1.81,1.81,0,0,0-.51-1.31,13.69,13.69,0,0,0-1.3-1.13c-.38-.31-.74-.62-1.09-.92a4.38,4.38,0,0,1-.83-1,2.44,2.44,0,0,1-.32-1.24,2.13,2.13,0,0,1,.43-1.36,2.56,2.56,0,0,1,1.14-.84A4.18,4.18,0,0,1,87.72,133.35Z"/><path d="M101.3,130a4.66,4.66,0,0,1,1.63.22,6.54,6.54,0,0,1,1,.48l.35.18a.51.51,0,0,0,.26.07c.19,0,.32-.27.39-.79h.41c0,.22,0,.5,0,.81s0,.74,0,1.25,0,1.19,0,2h-.41a6.11,6.11,0,0,0-.43-1.82,3.86,3.86,0,0,0-1-1.44,2.41,2.41,0,0,0-1.61-.56,2.08,2.08,0,0,0-1.41.48,1.66,1.66,0,0,0-.56,1.35,2.07,2.07,0,0,0,.36,1.22,4.22,4.22,0,0,0,1,1l1.67,1.17a17.33,17.33,0,0,1,1.55,1.11,4.93,4.93,0,0,1,1.09,1.25,3.28,3.28,0,0,1,.41,1.67,3,3,0,0,1-.62,2,3.71,3.71,0,0,1-1.62,1.16,6,6,0,0,1-2.21.39,5.66,5.66,0,0,1-1.77-.22,6.7,6.7,0,0,1-1.11-.45,1.42,1.42,0,0,0-.61-.25c-.19,0-.32.27-.4.79h-.41c0-.29,0-.62,0-1s0-.88,0-1.5,0-1.4,0-2.34h.42a8.58,8.58,0,0,0,.4,2.21,3.72,3.72,0,0,0,1,1.66,2.62,2.62,0,0,0,1.84.63,2.53,2.53,0,0,0,1.58-.5,1.8,1.8,0,0,0,.64-1.51,2.47,2.47,0,0,0-.75-1.84,13,13,0,0,0-1.94-1.49c-.56-.37-1.09-.74-1.58-1.12a4.52,4.52,0,0,1-1.17-1.27,3.21,3.21,0,0,1-.44-1.7,2.93,2.93,0,0,1,.57-1.86,3.3,3.3,0,0,1,1.48-1.07A5.38,5.38,0,0,1,101.3,130Z"/><path d="M109.48,143a2.15,2.15,0,0,1-1.74-.63,2.23,2.23,0,0,1-.54-1.52,2.08,2.08,0,0,1,.35-1.26,2.76,2.76,0,0,1,.9-.79,6.22,6.22,0,0,1,1.18-.52l1.18-.42a3.29,3.29,0,0,0,.92-.47.84.84,0,0,0,.35-.68v-1.4a2.24,2.24,0,0,0-.16-.84,1.16,1.16,0,0,0-.46-.56,1.53,1.53,0,0,0-.82-.2,3,3,0,0,0-.72.1,1.42,1.42,0,0,0-.59.33,1.56,1.56,0,0,1,.78.55,1.3,1.3,0,0,1,.28.83,1.21,1.21,0,0,1-.42,1,1.48,1.48,0,0,1-1,.36,1.17,1.17,0,0,1-1-.4,1.46,1.46,0,0,1-.34-1,1.4,1.4,0,0,1,.26-.86,3.15,3.15,0,0,1,.73-.65,4.5,4.5,0,0,1,1.21-.45,7.33,7.33,0,0,1,1.53-.16,6.17,6.17,0,0,1,1.49.17,2.38,2.38,0,0,1,1.11.62,2,2,0,0,1,.54,1,7.06,7.06,0,0,1,.13,1.51v4.88a1.47,1.47,0,0,0,.09.61.31.31,0,0,0,.3.18.67.67,0,0,0,.34-.09,1.6,1.6,0,0,0,.31-.22l.18.31a2.65,2.65,0,0,1-.87.49,3.5,3.5,0,0,1-1.11.17,1.74,1.74,0,0,1-1.42-.44,1.67,1.67,0,0,1-.37-1,3,3,0,0,1-1.1,1.09A3.14,3.14,0,0,1,109.48,143Zm1.38-1.15a1.26,1.26,0,0,0,.63-.16,2,2,0,0,0,.59-.57v-3.68a1.84,1.84,0,0,1-.61.6l-.78.52a2.43,2.43,0,0,0-.68.71,2.15,2.15,0,0,0-.27,1.15,1.52,1.52,0,0,0,.33,1.1A1.06,1.06,0,0,0,110.86,141.85Z"/><path d="M122.57,133.35a1.57,1.57,0,0,1,.93.25,1.48,1.48,0,0,1,.53.61,2,2,0,0,1,.17.79,1.53,1.53,0,0,1-.39,1.09,1.29,1.29,0,0,1-1,.42,1.41,1.41,0,0,1-1-.31,1.09,1.09,0,0,1-.35-.84,1.45,1.45,0,0,1,.23-.83,2.17,2.17,0,0,1,.56-.57.85.85,0,0,0-.5,0,1.5,1.5,0,0,0-.83.44,2.91,2.91,0,0,0-.59.87,2.52,2.52,0,0,0-.21,1V141a1.35,1.35,0,0,0,.42,1.16,2.09,2.09,0,0,0,1.26.31v.38l-1.2,0q-.78,0-1.65,0l-1.45,0-1.11,0v-.38a1.17,1.17,0,0,0,.88-.27,1.45,1.45,0,0,0,.27-1v-5.65a2.27,2.27,0,0,0-.25-1.19,1,1,0,0,0-.9-.39v-.38a10.6,10.6,0,0,0,1.11.06q.75,0,1.41-.06c.43,0,.84-.11,1.21-.19v1.66a3.12,3.12,0,0,1,.57-.87,2.51,2.51,0,0,1,.83-.62A2.34,2.34,0,0,1,122.57,133.35Z"/><path d="M129.15,133.35a5,5,0,0,1,2.29.49A3.44,3.44,0,0,1,133,135.4a6.26,6.26,0,0,1,.55,2.85,6.19,6.19,0,0,1-.55,2.84,3.47,3.47,0,0,1-1.55,1.55,5.55,5.55,0,0,1-4.56,0,3.49,3.49,0,0,1-1.56-1.55,6,6,0,0,1-.57-2.84,6.11,6.11,0,0,1,.57-2.85,3.46,3.46,0,0,1,1.56-1.56A5,5,0,0,1,129.15,133.35Zm0,.36c-.48,0-.88.36-1.2,1.07a12.5,12.5,0,0,0,0,6.93c.32.71.72,1.06,1.2,1.06s.89-.35,1.21-1.06a13,13,0,0,0,0-6.93C130,134.07,129.64,133.71,129.15,133.71Z"/><path d="M141.32,133.35a3.45,3.45,0,0,1,1.23.19,1.91,1.91,0,0,1,.75.51,2.19,2.19,0,0,1,.42.88,6.23,6.23,0,0,1,.13,1.45v4.83a1.51,1.51,0,0,0,.26,1,1.21,1.21,0,0,0,.89.27v.38l-1,0-1.35,0c-.45,0-.9,0-1.33,0l-1,0v-.38a.9.9,0,0,0,.75-.27,1.67,1.67,0,0,0,.22-1v-5.58a3,3,0,0,0-.09-.78,1,1,0,0,0-.32-.52,1.14,1.14,0,0,0-.7-.19,1.63,1.63,0,0,0-1.27.59,2.21,2.21,0,0,0-.51,1.49v5a1.66,1.66,0,0,0,.23,1,.9.9,0,0,0,.74.27v.38l-.94,0c-.41,0-.84,0-1.28,0l-1.4,0-1.08,0v-.38a1.2,1.2,0,0,0,.89-.27,1.51,1.51,0,0,0,.26-1v-5.65a2.28,2.28,0,0,0-.24-1.19,1,1,0,0,0-.91-.39v-.38a10.9,10.9,0,0,0,1.11.06q.77,0,1.41-.06c.44,0,.84-.11,1.21-.19V135a2.7,2.7,0,0,1,1.22-1.29A3.91,3.91,0,0,1,141.32,133.35Z"/><path d="M90,36.87a41.7,41.7,0,1,0,41.7,41.7A41.75,41.75,0,0,0,90,36.87Zm0,79.95a38.25,38.25,0,1,1,38.25-38.25A38.29,38.29,0,0,1,90,116.82Z"/><path d="M121.8,96.4a36.37,36.37,0,0,0,0-35.66l-.22-.41c-.1-.17-.2-.34-.31-.51a36.46,36.46,0,0,0-62.56,0l-.3.49c-.08.14-.15.28-.22.42a36.4,36.4,0,0,0,0,35.64l.22.41c.13.22.26.44.4.65a36.45,36.45,0,0,0,62.46-.13c.11-.17.21-.34.31-.52S121.73,96.54,121.8,96.4ZM89.06,65.67v8.07A16.69,16.69,0,0,1,89.06,65.67ZM78.36,84.21a16.69,16.69,0,0,1,7-4Zm7-7.24a16.8,16.8,0,0,1-7-4Zm16.29-4a16.8,16.8,0,0,1-7,4Zm-8,2.42a16.74,16.74,0,0,1,7-4.06Zm-2.75-1.58V65.63A16.73,16.73,0,0,1,90.94,73.77ZM79.27,71.29a16.74,16.74,0,0,1,7,4.06Zm2.56,6.34H73.2a16.69,16.69,0,0,1,1.51-6.07A18.84,18.84,0,0,0,81.83,77.63Zm0,1.88a18.84,18.84,0,0,0-7.12,6.07,16.69,16.69,0,0,1-1.51-6.07Zm4.48,2.27a16.66,16.66,0,0,1-7,4.07Zm2.75,1.59V91.5A16.69,16.69,0,0,1,89.06,83.37Zm1.88,8.13V83.37A16.69,16.69,0,0,1,90.94,91.5Zm9.75-5.67a16.86,16.86,0,0,1-7-4Zm-6-5.66a16.69,16.69,0,0,1,7,4Zm3.52-.66h8.63a16.69,16.69,0,0,1-1.51,6.07A18.84,18.84,0,0,0,98.17,79.51Zm0-1.88a18.84,18.84,0,0,0,7.12-6.07,16.69,16.69,0,0,1,1.51,6.07Zm7.12-9.82a18.89,18.89,0,0,0-5.14-4.94l5.18-9a16.7,16.7,0,0,1,0,13.92Zm-1.59,1a19.4,19.4,0,0,0-3.16.56A18.71,18.71,0,0,0,94.91,72l4.3-7.45A16.93,16.93,0,0,1,103.7,68.82ZM93.28,71a18.75,18.75,0,0,0-.6-6.17,19.75,19.75,0,0,0-1.09-3,16.61,16.61,0,0,1,6,1.74Zm-6-6.17a18.75,18.75,0,0,0-.6,6.17l-4.3-7.45a16.61,16.61,0,0,1,6-1.74A19.75,19.75,0,0,0,87.32,64.84ZM85.09,72a18.71,18.71,0,0,0-5.63-2.57,19.4,19.4,0,0,0-3.16-.56,16.93,16.93,0,0,1,4.49-4.32ZM74.71,67.81a16.7,16.7,0,0,1,0-13.92l5.18,9A18.89,18.89,0,0,0,74.71,67.81Zm-3.39,9.82H61A16.84,16.84,0,0,1,73,70.69,18.57,18.57,0,0,0,71.32,77.63Zm0,1.88A18.47,18.47,0,0,0,73,86.44,16.78,16.78,0,0,1,61,79.51Zm8.14,8.24a18.45,18.45,0,0,0,5.63-2.56l-4.3,7.45a17.09,17.09,0,0,1-4.49-4.32A19.24,19.24,0,0,0,79.46,87.75Zm7.26-1.62a18.72,18.72,0,0,0,.6,6.16,19.49,19.49,0,0,0,1.09,3,16.61,16.61,0,0,1-6-1.74Zm6,6.16a18.69,18.69,0,0,0,.6-6.16l4.3,7.45a16.61,16.61,0,0,1-6,1.74A19.49,19.49,0,0,0,92.68,92.29Zm2.22-7.12a18.81,18.81,0,0,0,8.81,3.14,17,17,0,0,1-4.5,4.33Zm13.78-5.66H119A16.78,16.78,0,0,1,107,86.44,18.57,18.57,0,0,0,108.68,79.51Zm0-1.88A18.57,18.57,0,0,0,107,70.69,16.84,16.84,0,0,1,119,77.63Zm6.06-6.38A18.57,18.57,0,0,0,108.46,69l7.81-4.51a29.59,29.59,0,0,1,3.36,10.84A18.69,18.69,0,0,0,114.74,71.25Zm-7.23-3.88a18.6,18.6,0,0,0,.12-12.82,30,30,0,0,1,7.69,8.31Zm-9-5.44a18.43,18.43,0,0,0-6.84-2A16.74,16.74,0,0,1,97,55.11a17,17,0,0,1,6.74-2.18Zm-17,0-5.19-9a16.89,16.89,0,0,1,12,7A18.48,18.48,0,0,0,81.48,61.93Zm-9,5.44-7.81-4.51a30,30,0,0,1,7.69-8.31,18.6,18.6,0,0,0,.12,12.82ZM71.54,69a18.65,18.65,0,0,0-11.17,6.33,29.59,29.59,0,0,1,3.36-10.84ZM65.26,85.89a19,19,0,0,0,6.27,2.26l-7.8,4.5a29.65,29.65,0,0,1-3.36-10.84A18.69,18.69,0,0,0,65.26,85.89Zm7.23,3.87a18.63,18.63,0,0,0-.12,12.83,29.92,29.92,0,0,1-7.69-8.32Zm.68,6.57a16.79,16.79,0,0,1,1.54-7,18.92,18.92,0,0,0,5.14,5l-5.18,9A16.66,16.66,0,0,1,73.17,96.33Zm8.31-1.12a18.48,18.48,0,0,0,6.86,2,16.93,16.93,0,0,1-12,7Zm17,0,5.19,9a16.93,16.93,0,0,1-12-7A18.48,18.48,0,0,0,98.52,95.21Zm1.63-.94a18.92,18.92,0,0,0,5.14-5,16.72,16.72,0,0,1,0,13.93Zm7.36-4.51,7.81,4.51a29.92,29.92,0,0,1-7.69,8.32,18.63,18.63,0,0,0-.12-12.83Zm.94-1.62a18.64,18.64,0,0,0,11.18-6.33,29.65,29.65,0,0,1-3.36,10.84Zm13-13.48a31.43,31.43,0,0,0-3.56-11.11l2.51-1.45A16.75,16.75,0,0,1,121.45,74.66ZM117,61.92a31.81,31.81,0,0,0-7.9-8.65l.69.16a16.71,16.71,0,0,1,9.72,7ZM96,53.49a18.9,18.9,0,0,0-5.09,4.3v-9a29.56,29.56,0,0,1,11,2.5A18.78,18.78,0,0,0,96,53.49Zm-7,4.3A18.9,18.9,0,0,0,84,53.49a18.59,18.59,0,0,0-6-2.2,29.67,29.67,0,0,1,11.07-2.51Zm-26,4.13-2.51-1.45a16.71,16.71,0,0,1,9.72-7l.69-.16A31.81,31.81,0,0,0,63.05,61.92Zm-.94,1.63a31.41,31.41,0,0,0-3.56,11.12A16.78,16.78,0,0,1,59.6,62.1ZM58.55,82.47a31.48,31.48,0,0,0,3.56,11.12L59.6,95A16.78,16.78,0,0,1,58.55,82.47Zm4.5,12.74a31.85,31.85,0,0,0,7.9,8.66l-.69-.17a16.63,16.63,0,0,1-9.72-7ZM84,103.65a18.76,18.76,0,0,0,5.09-4.31v9A29.62,29.62,0,0,1,78,105.85,18.86,18.86,0,0,0,84,103.65Zm7-4.31a18.75,18.75,0,0,0,11,6.51,29.57,29.57,0,0,1-11,2.51Zm26-4.13,2.51,1.45a16.63,16.63,0,0,1-9.72,7l-.69.17A31.85,31.85,0,0,0,117,95.21Zm.94-1.62a31.48,31.48,0,0,0,3.56-11.12,16.78,16.78,0,0,1-1,12.57ZM124,71.93a34.41,34.41,0,0,1,.63,5.7h-2.27A18.92,18.92,0,0,0,124,71.93ZM110.23,51.62a18.41,18.41,0,0,0-3.26-.57l1.13-1.95a35.89,35.89,0,0,1,4.56,3.35A18.8,18.8,0,0,0,110.23,51.62ZM90.94,46.9V44a16.71,16.71,0,0,1,11.4,5.38A31.42,31.42,0,0,0,90.94,46.9Zm-1.88,0a31.42,31.42,0,0,0-11.4,2.49A16.71,16.71,0,0,1,89.06,44ZM67.32,52.47A35.29,35.29,0,0,1,71.9,49.1l1.13,2A18.83,18.83,0,0,0,67.32,52.47ZM57.69,77.63H55.42a34.41,34.41,0,0,1,.63-5.7A18.92,18.92,0,0,0,57.69,77.63Zm0,1.88a18.92,18.92,0,0,0-1.64,5.7,34.53,34.53,0,0,1-.63-5.7ZM73,106.08l-1.13,2a35.29,35.29,0,0,1-4.58-3.37A19.06,19.06,0,0,0,73,106.08Zm16,4.16v2.89a16.75,16.75,0,0,1-11.4-5.38A31.42,31.42,0,0,0,89.06,110.24Zm1.88,0a31.42,31.42,0,0,0,11.4-2.49,16.75,16.75,0,0,1-11.4,5.38Zm19.29-4.72a20.45,20.45,0,0,0,2.43-.83A35.89,35.89,0,0,1,108.1,108l-1.12-2A18.46,18.46,0,0,0,110.23,105.52Zm12.08-26h2.27a34.53,34.53,0,0,1-.63,5.7A18.92,18.92,0,0,0,122.31,79.51ZM106.47,48.16l-1.13,2a18.77,18.77,0,0,0-4.12-4.27A33.71,33.71,0,0,1,106.47,48.16Zm-31.81,2-1.13-2a33.71,33.71,0,0,1,5.25-2.31A18.77,18.77,0,0,0,74.66,50.12ZM73.53,109l1.13-2a18.77,18.77,0,0,0,4.12,4.27A34.69,34.69,0,0,1,73.53,109Zm31.81-2,1.13,2a34.69,34.69,0,0,1-5.25,2.31A18.77,18.77,0,0,0,105.34,107Z"/></g></g></svg>