<svg width="32" height="32" viewBox="0 0 32 32" fill="none" xmlns="http://www.w3.org/2000/svg">
<g clip-path="url(#clip0_420_50)">
<path d="M29 0H3C1.34315 0 0 1.34315 0 3V29C0 30.6569 1.34315 32 3 32H29C30.6569 32 32 30.6569 32 29V3C32 1.34315 30.6569 0 29 0Z" fill="white"/>
<path d="M17.6217 18.389C17.6217 18.389 23.1523 22.4694 23.6591 22.8601C24.1658 23.2508 24.7796 24.0973 24.4013 24.8932C24.023 25.689 22.617 25.5082 22.617 25.5082C22.617 25.5082 23.2308 26.1376 22.8097 26.9914C22.3887 27.8451 21.104 27.4761 20.847 27.3676C20.847 27.3676 21.0183 28.0839 20.5259 28.4818C20.0334 28.8798 19.1627 28.8219 18.7131 28.6193C18.7131 28.6193 18.7773 29.6322 17.7496 29.625C16.7218 29.6178 15.1017 28.7423 15.1017 28.7423C15.1017 28.7423 7.58637 24.0828 7.09392 23.873C6.60146 23.6632 4.58167 23.4172 4.58167 23.4172L6.36593 15.1618C6.36593 15.1618 8.00424 15.6525 9.2146 15.557C10.425 15.4615 11.419 15.0073 12.2669 15.0808" fill="#FFE1C0"/>
<path d="M24.1802 23.4005L26.7038 21.9849L24.1802 23.4005L23.4372 22.6927L21.2781 21.0902C21.2781 21.0902 16.4423 17.8401 16.0742 17.6242C15.6875 17.3974 15.391 18.233 14.7007 18.7954C14.1222 19.2668 13.2552 20.3608 12.0759 20.5694C10.8966 20.7779 10.5126 20.3469 10.4852 19.7353C10.4578 19.1236 11.6735 17.8081 11.9066 17.3076C12.1397 16.8072 11.9328 15.4277 12.3579 15.0246C12.783 14.6214 15.4982 13.829 16.513 13.5093C17.5277 13.1895 18.6091 13.5624 19.5984 13.7317C20.3398 13.8586 23.0808 14.4574 23.7188 14.4455C24.3567 14.4335 25.1897 14.2929 25.1897 14.2929L26.7038 21.1403V21.7379" fill="#FFE5C0"/>
<path d="M24.1806 23.6923C24.0793 23.6923 23.9811 23.638 23.9285 23.5417C23.8515 23.4007 23.9019 23.2231 24.041 23.1451L26.5646 21.7296C26.704 21.6515 26.8789 21.7026 26.9558 21.8436C27.0328 21.9846 26.9824 22.1622 26.8433 22.2402L24.3197 23.6558C24.2755 23.6806 24.2278 23.6923 24.1806 23.6923V23.6923Z" fill="#FFCC83"/>
<path d="M17.7608 29.9169C17.7564 29.9169 17.7521 29.9169 17.7477 29.9169C16.6615 29.9092 15.0351 29.037 14.9664 28.9998C14.9614 28.9972 14.9565 28.9943 14.9516 28.9913C11.9382 27.123 7.32908 24.2897 6.9825 24.142C6.64849 23.9997 5.3433 23.8039 4.54748 23.7069C4.46689 23.6971 4.39417 23.6533 4.34717 23.5863C4.30017 23.5192 4.28324 23.4351 4.30062 23.3548L6.08488 15.0994C6.102 15.0202 6.1508 14.9519 6.21956 14.9107C6.28834 14.8694 6.3709 14.859 6.44756 14.882C6.46347 14.8867 8.05039 15.3563 9.19238 15.2661C9.71946 15.2245 10.202 15.1126 10.6686 15.0044C11.2416 14.8715 11.783 14.746 12.2916 14.79C12.45 14.8038 12.5674 14.9451 12.5539 15.1057C12.5403 15.2662 12.4002 15.3846 12.2425 15.3716C11.8233 15.335 11.3478 15.4455 10.797 15.5733C10.3327 15.681 9.80646 15.803 9.23708 15.8479C8.29085 15.9228 7.12294 15.6627 6.5826 15.5234L4.93044 23.1677C5.53737 23.248 6.79683 23.4299 7.20556 23.604C7.7021 23.8156 14.4363 27.9877 15.2442 28.4885C15.3591 28.5496 16.8399 29.3268 17.7517 29.3332C17.9782 29.3347 18.1439 29.278 18.2544 29.1594C18.4377 28.9626 18.4261 28.6412 18.4259 28.6381C18.4195 28.5362 18.466 28.4383 18.5487 28.3799C18.6313 28.3215 18.7381 28.3113 18.8301 28.3527C19.2038 28.521 19.9615 28.5649 20.3466 28.2537C20.6862 27.9792 20.5683 27.4402 20.5671 27.4348C20.5428 27.3282 20.5792 27.2161 20.6616 27.1455C20.744 27.0749 20.8583 27.0563 20.9579 27.0983C20.9701 27.1033 22.2083 27.5587 22.5525 26.8609C22.8775 26.2018 22.4171 25.7182 22.4125 25.7134C22.3262 25.6249 22.3047 25.4906 22.3591 25.379C22.4134 25.2674 22.5314 25.2026 22.6534 25.2187C22.9874 25.2605 23.907 25.2613 24.1421 24.7666C24.4401 24.1397 23.9123 23.4219 23.4849 23.0924C22.9864 22.708 17.5077 18.6657 17.4525 18.625C17.324 18.5302 17.2956 18.3476 17.3891 18.2173C17.4827 18.087 17.6627 18.0582 17.7913 18.1531C18.0172 18.3198 23.3301 22.2397 23.8335 22.6279C24.5258 23.1616 25.08 24.1378 24.6608 25.0199C24.3697 25.6323 23.6483 25.7854 23.1365 25.8126C23.2643 26.1365 23.328 26.5935 23.0673 27.1219C22.6803 27.9068 21.7616 27.8978 21.1601 27.7663C21.142 28.0617 21.0428 28.4375 20.7054 28.7101C20.222 29.1007 19.4885 29.1213 18.9609 29.0034C18.9191 29.1796 18.836 29.3849 18.673 29.56C18.4524 29.7969 18.1455 29.9169 17.7608 29.9169L17.7608 29.9169Z" fill="#FFC285"/>
<path d="M22.617 25.8C22.5583 25.8 22.4992 25.7819 22.4481 25.7444L19.3881 23.4932C19.3381 23.4563 19.301 23.4041 19.2825 23.3443L19.1384 22.8779C19.0908 22.7242 19.1753 22.5604 19.327 22.5122C19.4789 22.4642 19.6402 22.5497 19.6877 22.7034L19.8034 23.0776L22.7863 25.272C22.915 25.3667 22.9436 25.5491 22.8502 25.6796C22.7939 25.7582 22.706 25.8 22.617 25.8H22.617Z" fill="#FFC285"/>
<path d="M20.9339 27.7222C20.8814 27.7222 20.8282 27.7076 20.7805 27.677L17.9104 25.8402C17.8506 25.802 17.8068 25.7428 17.7873 25.6739L17.6612 25.228C17.6174 25.0731 17.7058 24.9115 17.8586 24.8671C18.0112 24.8229 18.1708 24.9122 18.2147 25.0672L18.3105 25.4061L21.0878 27.1836C21.2222 27.2696 21.2624 27.4498 21.1775 27.5861C21.1228 27.674 21.0294 27.7222 20.9339 27.7222V27.7222Z" fill="#FFC285"/>
<path d="M18.8177 28.986C18.7682 28.986 18.7181 28.973 18.6722 28.9457L17.0319 27.9689C16.9611 27.9268 16.9115 27.8561 16.8954 27.7746L16.8189 27.3875C16.7876 27.2295 16.8887 27.0757 17.0446 27.0441C17.2009 27.0122 17.3522 27.1148 17.3834 27.2728L17.4346 27.5318L18.9638 28.4425C19.1009 28.5241 19.1467 28.7029 19.0662 28.8419C19.0126 28.9344 18.9165 28.986 18.8177 28.986V28.986Z" fill="#FFC285"/>
<path d="M14.3964 27.0701C14.1307 27.378 13.5734 28.4678 14.2429 28.966C14.9125 29.4641 15.514 29.0281 16.0585 28.2481C16.603 27.468 16.2288 26.8698 15.9256 26.678C15.6653 26.5134 15.0872 26.2696 14.3964 27.0701Z" fill="#FFE5C0"/>
<path d="M12.2326 25.6587C12.0534 25.9632 11.3958 27.3971 12.3012 27.87C13.2067 28.3428 13.8377 28.0925 14.4825 26.7991C15.1273 25.5057 14.7706 24.866 14.1121 24.6157C13.4536 24.3654 12.7814 24.7269 12.2326 25.6587V25.6587Z" fill="#FFE5C0"/>
<path d="M9.93031 26.8061C10.3236 27.0909 11.1513 27.3346 12.043 25.9439C12.9347 24.5532 12.674 23.8856 12.043 23.4962C11.4119 23.1068 10.5202 23.5519 9.88916 24.5671C9.2581 25.5823 9.35413 26.3889 9.93031 26.8061V26.8061Z" fill="#FFE5C0"/>
<path d="M8.88882 23.7994C8.62581 23.5976 7.90915 23.3192 7.37899 23.899C6.84883 24.4789 7.43652 25.4354 8.04301 25.617C8.6495 25.7986 9.30135 25.8053 9.6168 25.0731C9.93225 24.3409 8.88882 23.7994 8.88882 23.7994Z" fill="#FFE5C0"/>
<path d="M14.815 29.47C14.562 29.4701 14.3131 29.38 14.0728 29.2013C13.8278 29.019 13.6802 28.7554 13.6459 28.4392C13.5773 27.8066 13.9761 27.1142 14.1799 26.878C14.9804 25.9504 15.7128 26.1994 16.0781 26.4304C16.3394 26.5958 16.5343 26.8898 16.5992 27.217C16.6529 27.4876 16.6435 27.9154 16.2936 28.4166C15.856 29.0436 15.4302 29.3834 14.9919 29.4555C14.9328 29.4652 14.8738 29.47 14.815 29.47V29.47ZM15.392 26.8007C15.1905 26.8007 14.9257 26.9002 14.6132 27.2623C14.4584 27.4416 14.1741 27.969 14.2182 28.3755C14.235 28.5313 14.2971 28.6442 14.4134 28.7307C14.5828 28.8568 14.7418 28.9053 14.8997 28.8794C15.1738 28.8343 15.4847 28.5652 15.8237 28.0796C16.0094 27.8134 16.0804 27.562 16.0348 27.3321C15.9944 27.1285 15.8687 26.9859 15.7733 26.9256C15.707 26.8836 15.5758 26.8007 15.392 26.8007L15.392 26.8007Z" fill="#FFCC83"/>
<path d="M13.0657 28.3832C12.7906 28.3832 12.4942 28.2989 12.1693 28.1293C11.8847 27.9807 11.688 27.7378 11.6004 27.4271C11.3622 26.5822 11.9786 25.5206 11.9854 25.509C12.6011 24.4635 13.413 24.0382 14.2131 24.3423C14.6071 24.4921 14.8858 24.7541 15.0189 25.1C15.2019 25.5754 15.1078 26.1913 14.7393 26.9306C14.3447 27.7221 13.9393 28.1637 13.4634 28.3201C13.3356 28.3621 13.2033 28.3832 13.0657 28.3832V28.3832ZM13.7081 24.8314C13.1482 24.8314 12.7096 25.4179 12.4797 25.8082C12.3171 26.0843 12.0235 26.8041 12.1539 27.2667C12.1986 27.4251 12.2872 27.5343 12.433 27.6105C12.7816 27.7925 13.0527 27.8417 13.2858 27.7649C13.6017 27.6611 13.9091 27.3021 14.2255 26.6674C14.513 26.0907 14.6019 25.622 14.4826 25.3121C14.4096 25.1225 14.2509 24.98 14.0109 24.8888C13.9067 24.8492 13.8055 24.8314 13.7081 24.8314V24.8314Z" fill="#FFCC83"/>
<path d="M10.583 27.318C10.206 27.318 9.91628 27.1547 9.76294 27.0436C9.17841 26.6203 8.84063 25.7066 9.64555 24.4116C10.3694 23.2471 11.4167 22.7684 12.1926 23.247C12.5628 23.4755 12.7916 23.774 12.8725 24.1344C12.9902 24.6582 12.7977 25.3021 12.2843 26.103C11.8415 26.7936 11.3536 27.1942 10.8342 27.2939C10.7468 27.3107 10.6629 27.318 10.583 27.318H10.583ZM10.0976 26.5688C10.2333 26.667 10.4527 26.7732 10.7271 26.7205C11.0812 26.6525 11.4527 26.329 11.8016 25.7849C12.2199 25.1325 12.3913 24.6208 12.3112 24.2639C12.2649 24.0576 12.1321 23.8929 11.8933 23.7456C11.4103 23.4475 10.6699 23.8584 10.1326 24.7227C9.6229 25.5428 9.61016 26.2157 10.0976 26.5688L10.0976 26.5688Z" fill="#FFCC83"/>
<path d="M8.65615 26.0101C8.45493 26.0101 8.22479 25.9757 7.96142 25.8969C7.5028 25.7595 7.0697 25.2899 6.93159 24.7801C6.82095 24.3717 6.90483 23.9884 7.1678 23.7008C7.7787 23.0324 8.63037 23.25 9.04165 23.5512C9.48813 23.7909 10.2103 24.4244 9.8805 25.1899C9.70714 25.5923 9.35793 26.01 8.65614 26.0101L8.65615 26.0101ZM8.1478 23.8455C7.9628 23.8455 7.76305 23.9082 7.59003 24.0974C7.46392 24.2354 7.42918 24.4131 7.48675 24.6255C7.57282 24.9432 7.85294 25.2559 8.12449 25.3372C8.9551 25.586 9.2117 25.2843 9.35292 24.9563C9.55439 24.4887 8.76558 24.0634 8.75757 24.0592C8.74264 24.0514 8.72842 24.0424 8.71504 24.0321C8.62162 23.9604 8.39823 23.8455 8.1478 23.8455V23.8455Z" fill="#FFCC83"/>
<path d="M11.5272 20.9148C11.1334 20.9148 10.8271 20.8227 10.5991 20.6372C10.3502 20.4346 10.2151 20.1356 10.1978 19.7484C10.1768 19.2809 10.5885 18.6807 11.1722 17.8838C11.3808 17.5991 11.5779 17.3301 11.6464 17.1829C11.7196 17.0258 11.7397 16.6785 11.7591 16.3426C11.7936 15.7447 11.8292 15.1264 12.1614 14.8114C12.5445 14.4481 14.1565 13.9312 15.9171 13.3888C16.113 13.3284 16.2868 13.2749 16.4277 13.2305C17.2971 12.9566 18.1691 13.1405 19.0126 13.3184C19.2327 13.3648 19.4407 13.4087 19.6465 13.4439C19.8564 13.4798 20.2233 13.5528 20.6481 13.6373C21.6844 13.8435 23.2438 14.1538 23.6968 14.1538C23.7026 14.1538 23.7082 14.1537 23.7136 14.1536C24.3224 14.1422 25.1344 14.0064 25.1426 14.005C25.2989 13.9784 25.4477 14.086 25.4737 14.245C25.4998 14.4039 25.3939 14.5542 25.2371 14.5807C25.2022 14.5866 24.3759 14.7249 23.7243 14.7371C23.7165 14.7373 23.7085 14.7374 23.7002 14.7374C23.2269 14.7374 21.9869 14.4984 20.5373 14.21C20.1164 14.1263 19.7531 14.054 19.5507 14.0193C19.3341 13.9823 19.1111 13.9353 18.8954 13.8898C18.1236 13.727 17.3254 13.5587 16.5986 13.7879C16.4567 13.8325 16.2818 13.8864 16.0845 13.9472C15.1231 14.2434 12.8717 14.937 12.5547 15.2376C12.3905 15.3933 12.3577 15.9617 12.3338 16.3767C12.3102 16.7861 12.2878 17.1728 12.167 17.4321C12.0741 17.6317 11.8704 17.9098 11.6344 18.2318C11.3073 18.6784 10.7596 19.4259 10.7729 19.7219C10.7826 19.9373 10.8436 20.0878 10.9595 20.1821C11.15 20.3371 11.5191 20.3716 12.0266 20.2818C12.8529 20.1357 13.5244 19.4966 14.064 18.9832C14.2267 18.8284 14.3803 18.6821 14.5205 18.5679C14.769 18.3655 14.9662 18.1183 15.1402 17.9002C15.4361 17.5294 15.7713 17.1092 16.2185 17.3715C16.253 17.3917 16.2933 17.4161 16.3392 17.4438C16.785 17.713 17.7126 18.273 18.823 18.4047C20.0638 18.5517 22.0966 18.3234 22.1171 18.3211C22.2746 18.3027 22.4175 18.4184 22.4353 18.5785C22.453 18.7386 22.3394 18.8831 22.1814 18.9011C22.0955 18.9109 20.0628 19.1395 18.7561 18.9843C17.5236 18.8381 16.4872 18.2125 16.0447 17.9453C16.0055 17.9216 15.9706 17.9005 15.9402 17.8826C15.8618 17.9239 15.7046 18.121 15.5879 18.2672C15.4051 18.4962 15.1778 18.7812 14.8812 19.0229C14.7582 19.1231 14.6191 19.2554 14.458 19.4087C13.8939 19.9455 13.1214 20.6807 12.1255 20.8568C11.9071 20.8954 11.708 20.9148 11.5273 20.9148L11.5272 20.9148Z" fill="#FFCC83"/>
<path d="M27.1749 23.0442C27.0515 23.0442 26.9386 22.9633 26.9003 22.8395C26.8933 22.8166 26.1854 20.5211 25.7836 18.6882C25.3818 16.8551 24.9758 13.7823 24.9718 13.7515C24.9533 13.6108 25.0373 13.477 25.171 13.4345L27.1562 12.8035C27.2329 12.7791 27.3161 12.7883 27.3857 12.8289C27.4554 12.8694 27.5052 12.9377 27.523 13.0171L29.5923 22.227C29.6095 22.3031 29.5957 22.3831 29.5542 22.4489C29.5127 22.5147 29.4469 22.5609 29.3715 22.5772L27.2349 23.0377C27.2148 23.042 27.1946 23.0441 27.1749 23.0441L27.1749 23.0442ZM25.5753 13.9176C25.6794 14.6787 26.0147 17.0521 26.3456 18.5616C26.6641 20.0144 27.1789 21.7667 27.3727 22.4113L28.9661 22.0679L27.0309 13.4549L25.5753 13.9176H25.5753Z" fill="#221714"/>
<path d="M33.6464 10.7258L26.7039 12.775C26.7039 12.775 28.2012 20.5693 28.9919 23.4346L34.7121 21.9849" fill="#006AEA"/>
<path d="M28.9918 23.7264C28.8656 23.7264 28.7503 23.6417 28.7147 23.5131C27.93 20.6694 26.4364 12.9088 26.4214 12.8307C26.3929 12.6826 26.4806 12.5369 26.6235 12.4948L33.566 10.4456C33.7186 10.4005 33.8784 10.4894 33.9228 10.6442C33.9672 10.7989 33.8795 10.9609 33.7269 11.0059L27.037 12.9805C27.296 14.3145 28.4862 20.3916 29.1954 23.0822L34.6423 21.7018C34.7964 21.6627 34.9528 21.7577 34.9914 21.9141C35.0299 22.0704 34.9362 22.2288 34.7819 22.2679L29.0618 23.7176C29.0383 23.7235 29.0149 23.7264 28.9918 23.7264V23.7264Z" fill="#221714"/>
<path d="M4.75725 14.205L6.77211 14.8369C6.77211 14.8369 5.98936 20.2592 4.75725 23.8888L2.55396 23.4186L4.75725 14.205V14.205Z" fill="white"/>
<path d="M4.75756 24.1809C4.73791 24.1809 4.71801 24.1788 4.69808 24.1745L2.49477 23.7043C2.4186 23.688 2.35217 23.6412 2.31062 23.5744C2.26908 23.5076 2.25601 23.4267 2.27433 23.35L4.47764 14.1364C4.49636 14.0581 4.54617 13.9912 4.61524 13.9514C4.68436 13.9116 4.76655 13.9026 4.84245 13.9264L6.8573 14.5583C6.99282 14.6008 7.07761 14.737 7.05705 14.8793C7.04918 14.9338 6.25624 20.3704 5.02958 23.984C4.98893 24.1036 4.87815 24.1809 4.75756 24.1809H4.75756ZM2.90375 23.1952L4.56646 23.5501C5.58378 20.4373 6.2852 16.1124 6.45021 15.0415L4.96496 14.5757L2.90375 23.1952V23.1952Z" fill="#221714"/>
<path d="M-1.55838 12.0151L5.33722 13.9553L2.97448 24.5795L-2.50476 23.2717" fill="#EFDD03"/>
<path d="M2.97444 24.8713C2.9524 24.8713 2.93028 24.8688 2.90846 24.8636L-2.57079 23.5557C-2.72554 23.5188 -2.82145 23.3617 -2.78499 23.2048C-2.74853 23.048 -2.59347 22.9508 -2.43884 22.9876L2.75754 24.228L4.99606 14.1621L-1.63544 12.2962C-1.78861 12.2532 -1.87832 12.0923 -1.83581 11.937C-1.79328 11.7817 -1.63468 11.6909 -1.48145 11.7339L5.41415 13.674C5.56204 13.7157 5.65171 13.8676 5.61795 14.0194L3.25523 24.6437C3.23834 24.7197 3.19221 24.7856 3.12708 24.8269C3.08094 24.8562 3.02796 24.8713 2.97443 24.8713L2.97444 24.8713Z" fill="#221714"/>
<path d="M16.0968 10.0337C15.9378 10.0337 15.809 9.90309 15.809 9.74194V3.14331C15.809 2.98216 15.9378 2.8515 16.0968 2.8515C16.2558 2.8515 16.3847 2.98216 16.3847 3.14331V9.74194C16.3847 9.90309 16.2558 10.0337 16.0968 10.0337Z" fill="#4367FF"/>
<path d="M20.2582 10.0339C20.2094 10.0339 20.1599 10.0213 20.1146 9.99479C19.9769 9.9142 19.9297 9.73575 20.0092 9.59617L23.2638 3.88159C23.3432 3.74204 23.5192 3.6941 23.657 3.77478C23.7947 3.85537 23.8418 4.03382 23.7624 4.1734L20.5078 9.88798C20.4545 9.98159 20.3577 10.0339 20.2582 10.0339V10.0339Z" fill="#00AAFF"/>
<path d="M11.9491 10.0339C11.8496 10.0339 11.7529 9.98158 11.6995 9.88797L8.44499 4.17339C8.36549 4.03381 8.41267 3.85536 8.55035 3.77477C8.68804 3.69424 8.86406 3.74206 8.94356 3.88158L12.1981 9.59616C12.2776 9.73574 12.2304 9.91419 12.0928 9.99478C12.0474 10.0213 11.9979 10.0339 11.9491 10.0339V10.0339Z" fill="#00AAFF"/>
<path d="M13.9255 9.5692C13.7889 9.5692 13.6676 9.47017 13.6425 9.32903L13.1432 6.51693C13.115 6.35831 13.219 6.2066 13.3755 6.17805C13.5318 6.14958 13.6816 6.25493 13.7098 6.41355L14.2091 9.22564C14.2373 9.38426 14.1333 9.53598 13.9768 9.56453C13.9596 9.56766 13.9424 9.5692 13.9255 9.5692V9.5692Z" fill="#FFDA00"/>
<path d="M9.89818 11.3402C9.82351 11.3402 9.74897 11.311 9.69258 11.2527L7.89808 9.39685C7.78679 9.28175 7.78862 9.09701 7.90216 8.98419C8.0157 8.87134 8.19791 8.87322 8.30923 8.98832L10.1037 10.8442C10.215 10.9593 10.2132 11.144 10.0996 11.2568C10.0436 11.3125 9.97087 11.3402 9.89818 11.3402V11.3402Z" fill="#FFFF00"/>
<path d="M18.5948 9.54665C18.5778 9.54665 18.5607 9.54511 18.5434 9.54198C18.387 9.51342 18.283 9.36167 18.3111 9.20309L18.8105 6.39099C18.8387 6.23238 18.9881 6.12691 19.1448 6.15549C19.3013 6.18405 19.4053 6.33579 19.3771 6.49438L18.8777 9.30647C18.8526 9.44762 18.7314 9.54665 18.5948 9.54665V9.54665Z" fill="#FFFF00"/>
<path d="M22.622 11.3177C22.5492 11.3177 22.4765 11.2899 22.4205 11.2343C22.3069 11.1215 22.3051 10.9367 22.4164 10.8216L24.2109 8.96579C24.3221 8.85061 24.5045 8.8489 24.6179 8.96166C24.7314 9.07448 24.7333 9.25923 24.622 9.37433L22.8275 11.2301C22.7712 11.2884 22.6966 11.3177 22.622 11.3177Z" fill="#FFDA00"/>
</g>
<defs>
<clipPath id="clip0_420_50">
<rect width="32" height="32" fill="white"/>
</clipPath>
</defs>
</svg>
